<svg width="40" height="40" viewBox="0 0 40 40" fill="none" xmlns="http://www.w3.org/2000/svg">
<circle cx="20" cy="20" r="20" fill="#D9D9D9"/>
<path d="M26.3362 26.339H23.6707V22.1622C23.6707 21.1662 23.6505 19.8845 22.2817 19.8845C20.892 19.8845 20.6797 20.9683 20.6797 22.0887V26.339H18.0142V17.75H20.5747V18.9207H20.6092C20.967 18.2457 21.837 17.5332 23.1367 17.5332C25.8375 17.5332 26.337 19.3108 26.337 21.6245L26.3362 26.339ZM15.0037 16.5747C14.1457 16.5747 13.4565 15.8803 13.4565 15.026C13.4565 14.1725 14.1465 13.4788 15.0037 13.4788C15.8587 13.4788 16.5517 14.1725 16.5517 15.026C16.5517 15.8803 15.858 16.5747 15.0037 16.5747ZM16.3402 26.339H13.6672V17.75H16.3402V26.339ZM27.6697 11H12.3292C11.595 11 11.001 11.5805 11.001 12.2968V27.7033C11.001 28.4202 11.595 29 12.3292 29H27.6675C28.401 29 29.001 28.4202 29.001 27.7033V12.2968C29.001 11.5805 28.401 11 27.6675 11H27.6697Z" fill="black"/>
</svg>
